<svg width="31" height="31" viewBox="0 0 31 31" fill="none" xmlns="http://www.w3.org/2000/svg">
<path d="M18.2596 4.60205C18.2596 2.98212 16.9464 1.66895 15.3265 1.66895C13.7066 1.66895 12.3934 2.98212 12.3934 4.60205V14.3791C9.69488 14.3823 7.50812 16.5691 7.50488 19.2676V24.4993L11.1966 29.1139C11.3384 29.2912 11.4157 29.5115 11.4157 29.7386V31H13.3711V28.7014L9.46029 23.8129V19.2676C9.46029 17.6477 10.7735 16.3345 12.3934 16.3345V23.1784H14.3488V4.60205C14.3488 4.06205 14.7865 3.62435 15.3265 3.62435C15.8665 3.62435 16.3042 4.06205 16.3042 4.60205V13.1706L19.5013 14.0427L20.0156 12.1558L18.2557 11.6767L18.2596 4.60205Z" fill="#0153FF"/>
<path d="M23.5305 14.1331C23.6724 13.6122 23.3652 13.0748 22.8442 12.9328C22.3233 12.7909 21.7859 13.0981 21.6439 13.6191C21.5019 14.14 21.8092 14.6774 22.3302 14.8194C22.8511 14.9613 23.3885 14.6541 23.5305 14.1331Z" fill="#0153FF"/>
<path d="M25.4185 14.6428C25.2765 15.1636 25.5834 15.7009 26.1041 15.8431L26.3225 15.9027C26.7574 16.0215 27.0591 16.4166 27.0591 16.8674V24.475C27.0591 24.6914 26.9889 24.9019 26.8591 25.075L24.326 28.4525C24.1962 28.6256 24.126 28.8361 24.126 29.0525V30.0224C24.126 30.5624 24.5637 31.0001 25.1037 31.0001V31.0001C25.6436 31.0001 26.0814 30.5624 26.0814 30.0224V29.7037C26.0814 29.4873 26.1516 29.2767 26.2814 29.1037L28.8145 25.7262C28.9443 25.5531 29.0145 25.3425 29.0145 25.1262V15.3738C29.0145 14.9228 28.7126 14.5277 28.2775 14.409L26.6188 13.9568C26.0979 13.8148 25.5605 14.122 25.4185 14.6428V14.6428Z" fill="#0153FF"/>
<path d="M5.26267 1.38247L3.8802 0L0.255859 3.62434L3.8802 7.24868L5.26267 5.86621L3.9985 4.60204H6.52684V2.64664H3.9985L5.26267 1.38247Z" fill="#0153FF"/>
<path d="M25.3901 5.86621L26.7726 7.24868L30.397 3.62434L26.7726 0L25.3901 1.38247L26.6543 2.64664H24.126V4.60204H26.6543L25.3901 5.86621Z" fill="#0153FF"/>
</svg>
