<svg width="105" height="122" viewBox="0 0 105 122" fill="none" xmlns="http://www.w3.org/2000/svg">
<path fill-rule="evenodd" clip-rule="evenodd" d="M85 14L62 1L61.0159 2.74113L84 15.7321V20V21H97L97 114H50H49H15H14H9V106V105L9 70L9 21L57 21V20V14H56H1V15V70V105V106V120V121H13H14H49H104V120V14H103H85ZM49 120H14V118H49V120ZM14 115H15H49V117H14V115ZM8 70L8 105H5L5 70H8ZM4 70L4 105H2L2 70H4ZM70.3544 30.9698C69.2635 30.6581 68.1345 30.5 67 30.5H50V30.6301L49.5931 30.4797L34.7911 70.5H17V73.5H33.6815L22.5931 103.48L25.4069 104.52L36.8801 73.5H67.2643C68.158 73.5 69.0507 73.4366 69.9355 73.3102L69.987 73.3028L69.9871 73.3028C71.5944 73.0732 73.1644 72.6329 74.6568 71.9933C75.6951 71.5484 76.6904 71.0092 77.6303 70.3826L77.7754 70.2858C78.8928 69.5409 79.9339 68.6874 80.8836 67.7378L81.5607 67.0607L81.6088 67.0125L81.6523 66.9603L83.2358 65.0601C83.8953 64.2687 84.4928 63.4275 85.0228 62.5441L83.7366 61.7723L85.0229 62.5441L85.1965 62.2546C85.6302 61.5318 86.0054 60.7755 86.3184 59.9928C86.7402 58.9384 87.0471 57.8415 87.2338 56.7213L87.2628 56.5475C87.4207 55.6002 87.5 54.6415 87.5 53.6812V53.3919C87.5 51.6807 87.2901 49.9759 86.8751 48.3157L86.8495 48.2132C86.5677 47.0859 86.1961 45.983 85.7384 44.915L84.8787 42.9091L84.8449 42.8303L84.8024 42.7558L83.5341 40.5364C83.0036 39.608 82.3926 38.7281 81.7081 37.9067C80.584 36.5577 79.2711 35.3779 77.81 34.4039L76.832 33.7519L76.7543 33.7001L76.6708 33.6584L73.9695 32.3077C73.0226 31.8343 72.0339 31.4497 71.016 31.1588L70.3544 30.9698ZM37.9897 70.5H64.9706L53.5 38L56.329 37.0015L68.1434 70.4757C68.6009 70.4503 69.0573 70.4052 69.5112 70.3403L69.5113 70.3403L69.5628 70.3329C70.9094 70.1406 72.2248 69.7717 73.475 69.2359C74.3449 68.8631 75.1787 68.4114 75.9662 67.8865L76.1113 67.7897C77.0643 67.1543 77.9523 66.4264 78.7622 65.6164L79.3912 64.9874L80.9311 63.1396C81.4918 62.4667 81.9997 61.7516 82.4503 61.0006L82.624 60.7112L83.9103 61.4829L82.624 60.7111C82.9754 60.1255 83.2794 59.5127 83.533 58.8787C83.8747 58.0244 84.1234 57.1357 84.2746 56.2281L84.3036 56.0543C84.4343 55.27 84.5 54.4763 84.5 53.6812V53.3919C84.5 51.9259 84.3202 50.4655 83.9646 49.0432L83.939 48.9409C83.696 47.9688 83.3756 47.0177 82.9809 46.0967L82.1551 44.1697L80.9294 42.0248C80.4861 41.249 79.9755 40.5136 79.4034 39.8272C78.464 38.6999 77.3669 37.714 76.1459 36.9L75.2457 36.2999L72.6279 34.991C71.8469 34.6005 71.0314 34.2833 70.1918 34.0434L69.5302 33.8544C68.7074 33.6193 67.8558 33.5 67 33.5H51.6747L37.9897 70.5ZM67.5 77L77.5 104L80.3132 102.958L70.3132 75.9581L67.5 77Z" fill="white"/>
<path d="M62 1L62.246 0.564719L61.8107 0.31869L61.5647 0.753971L62 1ZM85 14L84.754 14.4353L84.8685 14.5H85V14ZM61.0159 2.74113L60.5806 2.4951L60.3346 2.93038L60.7699 3.17641L61.0159 2.74113ZM84 15.7321H84.5V15.4404L84.246 15.2969L84 15.7321ZM84 21H83.5V21.5H84V21ZM97 21L97.5 21L97.5 20.5H97V21ZM97 114V114.5H97.5L97.5 114L97 114ZM9 114H8.5V114.5H9V114ZM9 105L9.5 105L9.5 105L9 105ZM9 70L8.5 70L8.5 70L9 70ZM9 21L9 20.5L8.5 20.5L8.5 21L9 21ZM57 21L57 21.5L57.5 21.5V21H57ZM57 14H57.5V13.5H57V14ZM1 14V13.5H0.5V14H1ZM1 121H0.5V121.5H1V121ZM104 121V121.5H104.5V121H104ZM104 14H104.5V13.5H104V14ZM14 120H13.5V120.5H14V120ZM49 120V120.5H49.5V120H49ZM14 118V117.5H13.5V118H14ZM49 118H49.5V117.5H49V118ZM14 115V114.5H13.5V115H14ZM49 115H49.5V114.5H49V115ZM49 117V117.5H49.5V117H49ZM14 117H13.5V117.5H14V117ZM8 105V105.5H8.5L8.5 105L8 105ZM8 70L8.5 70L8.5 69.5H8V70ZM5 105L4.5 105L4.5 105.5H5V105ZM5 70V69.5H4.5L4.5 70L5 70ZM4 105V105.5H4.5L4.5 105L4 105ZM4 70L4.5 70L4.5 69.5H4V70ZM2 105L1.5 105L1.5 105.5H2V105ZM2 70V69.5H1.5L1.5 70L2 70ZM50 30.5V30H49.5V30.5H50ZM50 30.6301L49.8266 31.0991L50.5 31.3482V30.6301H50ZM49.5931 30.4797L49.7666 30.0107L49.2976 29.8373L49.1242 30.3062L49.5931 30.4797ZM34.7911 70.5V71H35.1393L35.2601 70.6734L34.7911 70.5ZM17 70.5V70H16.5V70.5H17ZM17 73.5H16.5V74H17V73.5ZM33.6815 73.5L34.1505 73.6734L34.3995 73H33.6815V73.5ZM22.5931 103.48L22.1242 103.306L21.9507 103.775L22.4197 103.949L22.5931 103.48ZM25.4069 104.52L25.2334 104.989L25.7024 105.163L25.8758 104.694L25.4069 104.52ZM36.8801 73.5V73H36.532L36.4112 73.3266L36.8801 73.5ZM69.9355 73.3102L70.0062 73.8051L70.0062 73.8051L69.9355 73.3102ZM69.987 73.3028L69.925 72.8066L69.9163 72.8078L69.987 73.3028ZM69.9871 73.3028L70.0491 73.799L70.0578 73.7978L69.9871 73.3028ZM74.6568 71.9933L74.8537 72.4529L74.8537 72.4529L74.6568 71.9933ZM77.6303 70.3826L77.3529 69.9666L77.3529 69.9666L77.6303 70.3826ZM81.5607 67.0607L81.9142 67.4142L81.9142 67.4142L81.5607 67.0607ZM81.6088 67.0125L81.9624 67.3661L81.9784 67.3501L81.9929 67.3327L81.6088 67.0125ZM81.6523 66.9603L82.0364 67.2804L82.0364 67.2804L81.6523 66.9603ZM83.2358 65.0601L83.6199 65.3802L83.6199 65.3802L83.2358 65.0601ZM85.0228 62.5441L85.4516 62.8013L85.7088 62.3726L85.2801 62.1153L85.0228 62.5441ZM83.7366 61.7723L83.9938 61.3436L83.4793 62.2011L83.7366 61.7723ZM85.0229 62.5441L84.7656 62.9728L85.1944 63.2301L85.4516 62.8013L85.0229 62.5441ZM85.1965 62.2546L84.7678 61.9974L84.7677 61.9974L85.1965 62.2546ZM86.3184 59.9928L85.8542 59.8071L85.8542 59.8071L86.3184 59.9928ZM87.2338 56.7213L87.727 56.8035L87.727 56.8035L87.2338 56.7213ZM87.2628 56.5475L86.7696 56.4653L86.7696 56.4653L87.2628 56.5475ZM86.8751 48.3157L86.39 48.437L86.39 48.437L86.8751 48.3157ZM86.8495 48.2132L87.3346 48.092L87.3346 48.092L86.8495 48.2132ZM85.7384 44.915L85.2788 45.1119L85.2788 45.1119L85.7384 44.915ZM84.8787 42.9091L84.4191 43.1061L84.4191 43.1061L84.8787 42.9091ZM84.8449 42.8303L85.3045 42.6333L85.2932 42.607L85.279 42.5822L84.8449 42.8303ZM84.8024 42.7558L84.3682 43.0039L84.3682 43.0039L84.8024 42.7558ZM83.5341 40.5364L83.1 40.7845L83.1 40.7845L83.5341 40.5364ZM81.7081 37.9067L82.0922 37.5866L82.0922 37.5866L81.7081 37.9067ZM77.81 34.4039L78.0874 33.9879L78.0874 33.9879L77.81 34.4039ZM76.832 33.7519L76.5547 34.1679L76.5547 34.1679L76.832 33.7519ZM76.7543 33.7001L77.0317 33.2841L77.0058 33.2668L76.978 33.2529L76.7543 33.7001ZM73.9695 32.3077L74.1931 31.8605L74.1931 31.8605L73.9695 32.3077ZM71.016 31.1588L71.1533 30.6781L71.1533 30.6781L71.016 31.1588ZM64.9706 70.5V71H65.6773L65.4421 70.3336L64.9706 70.5ZM37.9897 70.5L37.5208 70.3266L37.2717 71H37.9897V70.5ZM53.5 38L53.3336 37.5285L52.8621 37.6949L53.0285 38.1664L53.5 38ZM56.329 37.0015L56.8005 36.8351L56.6341 36.3636L56.1626 36.53L56.329 37.0015ZM68.1434 70.4757L67.6719 70.6421L67.7967 70.9956L68.171 70.9749L68.1434 70.4757ZM69.5112 70.3403L69.5819 70.8353L69.6009 70.8326L69.6197 70.8284L69.5112 70.3403ZM69.5113 70.3403L69.4406 69.8453L69.4216 69.848L69.4028 69.8522L69.5113 70.3403ZM69.5628 70.3329L69.6335 70.8279L69.6335 70.8279L69.5628 70.3329ZM73.475 69.2359L73.672 69.6955L73.672 69.6955L73.475 69.2359ZM75.9662 67.8865L76.2435 68.3025L76.2435 68.3025L75.9662 67.8865ZM76.1113 67.7897L75.8339 67.3737L75.8339 67.3737L76.1113 67.7897ZM78.7622 65.6164L78.4087 65.2629L78.4087 65.2629L78.7622 65.6164ZM79.3912 64.9874L79.7448 65.341L79.7608 65.325L79.7753 65.3075L79.3912 64.9874ZM80.9311 63.1396L81.3152 63.4597L81.3152 63.4597L80.9311 63.1396ZM82.4503 61.0006L82.8791 61.2579L82.8791 61.2579L82.4503 61.0006ZM82.624 60.7112L82.8812 60.2824L82.4525 60.0252L82.1953 60.4539L82.624 60.7112ZM83.9103 61.4829L83.653 61.9116L84.1675 61.0541L83.9103 61.4829ZM82.624 60.7111L82.1953 60.4539L81.938 60.8826L82.3668 61.1399L82.624 60.7111ZM83.533 58.8787L83.9972 59.0644L83.9972 59.0644L83.533 58.8787ZM84.2746 56.2281L83.7814 56.1459L83.7814 56.1459L84.2746 56.2281ZM84.3036 56.0543L84.7968 56.1365L84.7968 56.1365L84.3036 56.0543ZM83.9646 49.0432L84.4497 48.922L84.4497 48.922L83.9646 49.0432ZM83.939 48.9409L83.454 49.0621L83.454 49.0621L83.939 48.9409ZM82.9809 46.0967L83.4405 45.8998L83.4405 45.8998L82.9809 46.0967ZM82.1551 44.1697L82.6146 43.9728L82.6034 43.9465L82.5892 43.9216L82.1551 44.1697ZM80.9294 42.0248L80.4953 42.2729L80.4953 42.2729L80.9294 42.0248ZM79.4034 39.8272L79.7876 39.5071L79.7876 39.5071L79.4034 39.8272ZM76.1459 36.9L76.4233 36.484L76.4233 36.484L76.1459 36.9ZM75.2457 36.2999L75.523 35.8839L75.4971 35.8666L75.4693 35.8527L75.2457 36.2999ZM72.6279 34.991L72.8515 34.5438L72.8515 34.5438L72.6279 34.991ZM70.1918 34.0434L70.0544 34.5242L70.0544 34.5242L70.1918 34.0434ZM69.5302 33.8544L69.6676 33.3736L69.6676 33.3736L69.5302 33.8544ZM51.6747 33.5V33H51.3265L51.2057 33.3266L51.6747 33.5ZM77.5 104L77.0311 104.174L77.2048 104.643L77.6737 104.469L77.5 104ZM67.5 77L67.3263 76.5311L66.8575 76.7048L67.0311 77.1737L67.5 77ZM80.3132 102.958L80.4869 103.427L80.9558 103.253L80.7821 102.784L80.3132 102.958ZM70.3132 75.9581L70.7821 75.7844L70.6085 75.3155L70.1396 75.4892L70.3132 75.9581ZM61.754 1.43528L84.754 14.4353L85.246 13.5647L62.246 0.564719L61.754 1.43528ZM61.4512 2.98715L62.4353 1.24603L61.5647 0.753971L60.5806 2.4951L61.4512 2.98715ZM84.246 15.2969L61.2619 2.30584L60.7699 3.17641L83.754 16.1674L84.246 15.2969ZM84.5 20V15.7321H83.5V20H84.5ZM84.5 21V20H83.5V21H84.5ZM97 20.5H84V21.5H97V20.5ZM97.5 114L97.5 21L96.5 21L96.5 114L97.5 114ZM50 114.5H97V113.5H50V114.5ZM49 114.5H50V113.5H49V114.5ZM15 114.5H49V113.5H15V114.5ZM14 114.5H15V113.5H14V114.5ZM9 114.5H14V113.5H9V114.5ZM8.5 106V114H9.5V106H8.5ZM8.5 105V106H9.5V105H8.5ZM8.5 70L8.5 105L9.5 105L9.5 70L8.5 70ZM8.5 21L8.5 70L9.5 70L9.5 21L8.5 21ZM57 20.5L9 20.5L9 21.5L57 21.5L57 20.5ZM56.5 20V21H57.5V20H56.5ZM56.5 14V20H57.5V14H56.5ZM56 14.5H57V13.5H56V14.5ZM1 14.5H56V13.5H1V14.5ZM1.5 15V14H0.5V15H1.5ZM1.5 70V15H0.5V70H1.5ZM1.5 105V70H0.5V105H1.5ZM1.5 106V105H0.5V106H1.5ZM1.5 120V106H0.5V120H1.5ZM1.5 121V120H0.5V121H1.5ZM13 120.5H1V121.5H13V120.5ZM14 120.5H13V121.5H14V120.5ZM49 120.5H14V121.5H49V120.5ZM104 120.5H49V121.5H104V120.5ZM103.5 120V121H104.5V120H103.5ZM103.5 14V120H104.5V14H103.5ZM103 14.5H104V13.5H103V14.5ZM85 14.5H103V13.5H85V14.5ZM14 120.5H49V119.5H14V120.5ZM13.5 118V120H14.5V118H13.5ZM49 117.5H14V118.5H49V117.5ZM49.5 120V118H48.5V120H49.5ZM15 114.5H14V115.5H15V114.5ZM49 114.5H15V115.5H49V114.5ZM49.5 117V115H48.5V117H49.5ZM14 117.5H49V116.5H14V117.5ZM13.5 115V117H14.5V115H13.5ZM8.5 105L8.5 70L7.5 70L7.5 105L8.5 105ZM5 105.5H8V104.5H5V105.5ZM4.5 70L4.5 105L5.5 105L5.5 70L4.5 70ZM8 69.5H5V70.5H8V69.5ZM4.5 105L4.5 70L3.5 70L3.5 105L4.5 105ZM2 105.5H4V104.5H2V105.5ZM1.5 70L1.5 105L2.5 105L2.5 70L1.5 70ZM4 69.5H2V70.5H4V69.5ZM67 31C68.0881 31 69.1708 31.1516 70.217 31.4506L70.4917 30.489C69.3562 30.1646 68.181 30 67 30V31ZM50 31H67V30H50V31ZM50.5 30.6301V30.5H49.5V30.6301H50.5ZM49.4197 30.9486L49.8266 31.0991L50.1734 30.1612L49.7666 30.0107L49.4197 30.9486ZM35.2601 70.6734L50.0621 30.6531L49.1242 30.3062L34.3221 70.3266L35.2601 70.6734ZM17 71H34.7911V70H17V71ZM17.5 73.5V70.5H16.5V73.5H17.5ZM33.6815 73H17V74H33.6815V73ZM23.0621 103.653L34.1505 73.6734L33.2126 73.3266L22.1242 103.306L23.0621 103.653ZM25.5803 104.051L22.7666 103.011L22.4197 103.949L25.2334 104.989L25.5803 104.051ZM36.4112 73.3266L24.9379 104.347L25.8758 104.694L37.3491 73.6734L36.4112 73.3266ZM67.2643 73H36.8801V74H67.2643V73ZM69.8648 72.8152C69.0034 72.9382 68.1344 73 67.2643 73V74C68.1817 74 69.098 73.9349 70.0062 73.8051L69.8648 72.8152ZM69.9163 72.8078L69.8647 72.8152L70.0062 73.8051L70.0578 73.7978L69.9163 72.8078ZM69.9251 72.8066L69.925 72.8067L70.049 73.7989L70.0491 73.7989L69.9251 72.8066ZM74.4598 71.5338C73.0078 72.156 71.4802 72.5844 69.9164 72.8078L70.0578 73.7978C71.7085 73.5619 73.3211 73.1098 74.8537 72.4529L74.4598 71.5338ZM77.3529 69.9666C76.4384 70.5762 75.47 71.1008 74.4598 71.5338L74.8537 72.4529C75.9201 71.9959 76.9423 71.4422 77.9076 70.7986L77.3529 69.9666ZM77.498 69.8698L77.3529 69.9666L77.9076 70.7986L78.0527 70.7019L77.498 69.8698ZM80.53 67.3842C79.6037 68.3106 78.5881 69.1431 77.498 69.8698L78.0527 70.7019C79.1976 69.9387 80.2642 69.0642 81.2371 68.0913L80.53 67.3842ZM81.2071 66.7071L80.53 67.3842L81.2371 68.0913L81.9142 67.4142L81.2071 66.7071ZM81.2552 66.659L81.2071 66.7071L81.9142 67.4142L81.9624 67.3661L81.2552 66.659ZM81.2682 66.6402L81.2247 66.6924L81.9929 67.3327L82.0364 67.2804L81.2682 66.6402ZM82.8517 64.74L81.2682 66.6402L82.0364 67.2804L83.6199 65.3802L82.8517 64.74ZM84.5941 62.2868C84.0773 63.1482 83.4947 63.9684 82.8517 64.74L83.6199 65.3802C84.2959 64.569 84.9083 63.7068 85.4516 62.8013L84.5941 62.2868ZM83.4793 62.2011L84.7656 62.9728L85.2801 62.1153L83.9938 61.3436L83.4793 62.2011ZM85.2801 62.1153L83.9938 61.3436L83.4794 62.2011L84.7656 62.9728L85.2801 62.1153ZM84.7677 61.9974L84.5941 62.2868L85.4516 62.8013L85.6252 62.5119L84.7677 61.9974ZM85.8542 59.8071C85.551 60.565 85.1877 61.2974 84.7678 61.9974L85.6252 62.5119C86.0727 61.7662 86.4597 60.9859 86.7827 60.1785L85.8542 59.8071ZM86.7406 56.6391C86.5598 57.7239 86.2626 58.786 85.8542 59.8071L86.7827 60.1785C87.2178 59.0907 87.5344 57.9592 87.727 56.8035L86.7406 56.6391ZM86.7696 56.4653L86.7406 56.6391L87.727 56.8035L87.756 56.6297L86.7696 56.4653ZM87 53.6812C87 54.614 86.9229 55.5452 86.7696 56.4653L87.756 56.6297C87.9184 55.6552 88 54.6691 88 53.6812H87ZM87 53.3919V53.6812H88V53.3919H87ZM86.39 48.437C86.7951 50.0575 87 51.7215 87 53.3919H88C88 51.6398 87.7851 49.8942 87.3602 48.1945L86.39 48.437ZM86.3644 48.3345L86.39 48.437L87.3602 48.1945L87.3346 48.092L86.3644 48.3345ZM85.2788 45.1119C85.726 46.1555 86.0891 47.2331 86.3644 48.3345L87.3346 48.092C87.0463 46.9388 86.6662 45.8106 86.1979 44.718L85.2788 45.1119ZM84.4191 43.1061L85.2788 45.1119L86.1979 44.718L85.3383 42.7122L84.4191 43.1061ZM84.3854 43.0272L84.4191 43.1061L85.3383 42.7122L85.3045 42.6333L84.3854 43.0272ZM84.3682 43.0039L84.4108 43.0784L85.279 42.5822L85.2365 42.5077L84.3682 43.0039ZM83.1 40.7845L84.3682 43.0039L85.2365 42.5077L83.9683 40.2883L83.1 40.7845ZM81.324 38.2267C81.9898 39.0257 82.5841 39.8815 83.1 40.7845L83.9683 40.2883C83.4232 39.3345 82.7955 38.4305 82.0922 37.5866L81.324 38.2267ZM77.5327 34.8199C78.9537 35.7673 80.2306 36.9147 81.324 38.2267L82.0922 37.5866C80.9373 36.2006 79.5884 34.9886 78.0874 33.9879L77.5327 34.8199ZM76.5547 34.1679L77.5327 34.8199L78.0874 33.9879L77.1094 33.3359L76.5547 34.1679ZM76.477 34.1161L76.5547 34.1679L77.1094 33.3359L77.0317 33.2841L76.477 34.1161ZM76.4472 34.1056L76.5307 34.1473L76.978 33.2529L76.8944 33.2111L76.4472 34.1056ZM73.7459 32.7549L76.4472 34.1056L76.8944 33.2111L74.1931 31.8605L73.7459 32.7549ZM70.8786 31.6396C71.8668 31.9219 72.8267 32.2953 73.7459 32.7549L74.1931 31.8605C73.2186 31.3732 72.201 30.9774 71.1533 30.6781L70.8786 31.6396ZM70.217 31.4506L70.8786 31.6396L71.1533 30.6781L70.4917 30.489L70.217 31.4506ZM64.9706 70H37.9897V71H64.9706V70ZM53.0285 38.1664L64.4991 70.6664L65.4421 70.3336L53.9715 37.8336L53.0285 38.1664ZM56.1626 36.53L53.3336 37.5285L53.6664 38.4715L56.4954 37.473L56.1626 36.53ZM68.6149 70.3093L56.8005 36.8351L55.8575 37.168L67.6719 70.6421L68.6149 70.3093ZM69.4405 69.8453C69.0009 69.9081 68.5588 69.9519 68.1157 69.9764L68.171 70.9749C68.643 70.9487 69.1137 70.9022 69.5819 70.8353L69.4405 69.8453ZM69.4028 69.8522L69.4027 69.8522L69.6197 70.8284L69.6197 70.8284L69.4028 69.8522ZM69.4922 69.838L69.4406 69.8453L69.5819 70.8353L69.6335 70.8279L69.4922 69.838ZM73.2781 68.7763C72.0681 69.2949 70.7952 69.6518 69.4921 69.838L69.6335 70.8279C71.0236 70.6293 72.3814 70.2486 73.672 69.6955L73.2781 68.7763ZM75.6888 67.4704C74.9268 67.9784 74.1198 68.4156 73.2781 68.7763L73.672 69.6955C74.5699 69.3106 75.4307 68.8444 76.2435 68.3025L75.6888 67.4704ZM75.8339 67.3737L75.6888 67.4704L76.2435 68.3025L76.3887 68.2057L75.8339 67.3737ZM78.4087 65.2629C77.622 66.0495 76.7596 66.7566 75.8339 67.3737L76.3886 68.2057C77.3691 67.5521 78.2826 66.8032 79.1158 65.97L78.4087 65.2629ZM79.0377 64.6339L78.4087 65.2629L79.1158 65.97L79.7448 65.341L79.0377 64.6339ZM80.547 62.8195L79.0071 64.6674L79.7753 65.3075L81.3152 63.4597L80.547 62.8195ZM82.0216 60.7434C81.5842 61.4723 81.0912 62.1664 80.547 62.8195L81.3152 63.4597C81.8924 62.7671 82.4152 62.0309 82.8791 61.2579L82.0216 60.7434ZM82.1953 60.4539L82.0216 60.7434L82.8791 61.2579L83.0528 60.9684L82.1953 60.4539ZM84.1675 61.0541L82.8812 60.2824L82.3668 61.1399L83.653 61.9116L84.1675 61.0541ZM82.3668 61.1399L83.653 61.9116L84.1675 61.0541L82.8813 60.2824L82.3668 61.1399ZM83.0688 58.693C82.825 59.3023 82.5329 59.8911 82.1953 60.4539L83.0528 60.9684C83.4179 60.3599 83.7337 59.7232 83.9972 59.0644L83.0688 58.693ZM83.7814 56.1459C83.6361 57.0181 83.3971 57.872 83.0688 58.693L83.9972 59.0644C84.3523 58.1767 84.6107 57.2533 84.7678 56.3103L83.7814 56.1459ZM83.8104 55.9721L83.7814 56.1459L84.7678 56.3103L84.7968 56.1365L83.8104 55.9721ZM84 53.6812C84 54.4487 83.9366 55.215 83.8104 55.9721L84.7968 56.1365C84.932 55.325 85 54.5038 85 53.6812H84ZM84 53.3919V53.6812H85V53.3919H84ZM83.4796 49.1645C83.8252 50.5471 84 51.9668 84 53.3919H85C85 51.8851 84.8152 50.3839 84.4497 48.922L83.4796 49.1645ZM83.454 49.0621L83.4796 49.1645L84.4497 48.922L84.4241 48.8196L83.454 49.0621ZM82.5214 46.2937C82.9056 47.1902 83.2174 48.1159 83.454 49.0621L84.4241 48.8196C84.1746 47.8216 83.8457 46.8453 83.4405 45.8998L82.5214 46.2937ZM81.6955 44.3667L82.5214 46.2937L83.4405 45.8998L82.6146 43.9728L81.6955 44.3667ZM80.4953 42.2729L81.721 44.4178L82.5892 43.9216L81.3635 41.7767L80.4953 42.2729ZM79.0193 40.1473C79.5726 40.8112 80.0665 41.5225 80.4953 42.2729L81.3635 41.7767C80.9057 40.9755 80.3783 40.216 79.7876 39.5071L79.0193 40.1473ZM75.8686 37.3161C77.0495 38.1034 78.1107 39.0569 79.0193 40.1473L79.7876 39.5071C78.8173 38.3429 77.6842 37.3247 76.4233 36.484L75.8686 37.3161ZM74.9683 36.7159L75.8686 37.3161L76.4233 36.484L75.523 35.8839L74.9683 36.7159ZM72.4043 35.4382L75.022 36.7471L75.4693 35.8527L72.8515 34.5438L72.4043 35.4382ZM70.0544 34.5242C70.8643 34.7555 71.6509 35.0615 72.4043 35.4382L72.8515 34.5438C72.0429 34.1395 71.1985 33.811 70.3291 33.5626L70.0544 34.5242ZM69.3928 34.3351L70.0544 34.5242L70.3291 33.5626L69.6676 33.3736L69.3928 34.3351ZM67 34C67.8093 34 68.6147 34.1128 69.3928 34.3351L69.6676 33.3736C68.8001 33.1257 67.9022 33 67 33V34ZM51.6747 34H67V33H51.6747V34ZM38.4587 70.6734L52.1436 33.6734L51.2057 33.3266L37.5208 70.3266L38.4587 70.6734ZM77.9689 103.826L67.9689 76.8263L67.0311 77.1737L77.0311 104.174L77.9689 103.826ZM80.1396 102.489L77.3263 103.531L77.6737 104.469L80.4869 103.427L80.1396 102.489ZM69.8444 76.1317L79.8444 103.132L80.7821 102.784L70.7821 75.7844L69.8444 76.1317ZM67.6737 77.4689L70.4869 76.4269L70.1396 75.4892L67.3263 76.5311L67.6737 77.4689Z" fill="white"/>
</svg>
